<svg width="512" height="512" viewBox="0 0 512 512" fill="none" xmlns="http://www.w3.org/2000/svg">
<g clip-path="url(#clip0_2182_871)">
<path d="M0 256C0 114.616 114.616 0 256 0C397.384 0 512 114.616 512 256C500.87 256 256 289.391 256 289.391L0 256Z" fill="#D80027"/>
<path d="M512 256C512 397.384 397.384 512 256 512C114.616 512 0 397.384 0 256" fill="black"/>
<path d="M220.896 203.613L242.598 219.363L234.328 244.871L256.014 229.095L277.718 244.845L269.416 219.345L291.1 203.571L264.285 203.587L255.982 178.088L247.711 203.596L220.896 203.613Z" fill="#FFDA44"/>
<path d="M319.999 145.149C299.826 133.502 277.769 128.005 255.999 128.043V161.427C272.09 161.398 288.392 165.458 303.303 174.068C348.481 200.152 364.016 258.128 337.931 303.306C311.848 348.484 253.873 364.019 208.694 337.935C195.532 330.336 184.907 320.018 177.075 308.111L149.199 326.515C159.796 342.624 174.192 356.571 191.999 366.851C253.123 402.141 331.56 381.124 366.849 320C402.139 258.876 381.123 180.439 319.999 145.149V145.149Z" fill="#FFDA44"/>
<path d="M182.188 233.738C173.338 249.917 179.28 270.208 195.458 279.058L303.907 338.318C296.532 351.799 300.449 368.208 313.93 375.583L343.225 391.608C356.706 398.984 373.617 394.032 380.992 380.55L397.017 351.256L182.188 233.738Z" fill="#FFDA44"/>
</g>
<defs>
<clipPath id="clip0_2182_871">
<rect width="512" height="512" fill="white"/>
</clipPath>
</defs>
</svg>
