<svg width="512" height="512" viewBox="0 0 512 512" fill="none" xmlns="http://www.w3.org/2000/svg">
<g clip-path="url(#clip0_2182_1030)">
<path d="M512 256C512 397.384 397.384 512 256 512C114.616 512 0 397.384 0 256C0 256.061 256 0.028 256 0C397.384 0 512 114.616 512 256Z" fill="#D80027"/>
<path d="M256 122.436V208.779L166.957 122.436H256Z" fill="#0052B4"/>
<path d="M133.566 256H208.777L133.566 155.826L122.436 233.739L133.566 256Z" fill="#0052B4"/>
<path d="M255.314 255.999H255.999C255.999 255.769 255.999 255.545 255.999 255.314C255.771 255.543 255.543 255.771 255.314 255.999Z" fill="#F0F0F0"/>
<path d="M256 133.565C256 88.52 256 59.005 256 0H255.957C114.591 0.024 0 114.629 0 256H133.565V180.789L208.776 256H255.316C255.544 255.772 255.772 255.544 256.001 255.315C256.001 238.068 256.001 222.679 256.001 208.778L180.788 133.565H256Z" fill="#F0F0F0"/>
<path d="M129.515 33.3906C89.4756 56.1896 56.1886 89.4756 33.3906 129.515V267.13H100.174V100.176V100.174H267.13C267.13 79.1106 267.13 59.0446 267.13 33.3906H129.515Z" fill="#D80027"/>
<path d="M266.176 234.693L165.044 133.564H133.564V133.566L266.173 266.175H266.175C266.176 266.176 266.176 244.469 266.176 234.693V234.693Z" fill="#D80027"/>
<path d="M289.391 133.564V255.998C289.391 315.638 445.217 315.638 445.217 255.998V133.564H289.391Z" fill="#F3F3F3"/>
<path d="M289.391 255.999V255.998C289.391 315.638 367.304 333.912 367.304 333.912C367.304 333.912 445.217 315.638 445.217 255.998V255.999H289.391Z" fill="#6DA544"/>
<path d="M367.305 207.025L331.131 222.608V255.999L367.305 278.26L403.479 255.999V222.608L367.305 207.025Z" fill="#A2001D"/>
<path d="M331.131 189.217H403.479V222.608H331.131V189.217Z" fill="#338AF3"/>
</g>
<defs>
<clipPath id="clip0_2182_1030">
<rect width="512" height="512" fill="white"/>
</clipPath>
</defs>
</svg>
