<svg width="512" height="512" viewBox="0 0 512 512" fill="none" xmlns="http://www.w3.org/2000/svg">
<g clip-path="url(#clip0_2182_1656)">
<path d="M111.713 467.478C152.797 495.563 202.477 512 256 512C309.523 512 359.202 495.563 400.287 467.478L256 445.217L111.713 467.478Z" fill="#D80027"/>
<path d="M400.287 44.522C359.202 16.437 309.523 0 256 0C202.477 0 152.797 16.437 111.713 44.522L256 66.783L400.287 44.522Z" fill="#D80027"/>
<path d="M512 256C512 171.29 461.284 86.2205 400.287 44.5225H111.713C44.27 90.6265 0 168.14 0 256C0 343.863 44.27 421.374 111.713 467.478H400.287C467.731 421.374 512 343.863 512 256Z" fill="#0052B4"/>
<path d="M241.513 417.597C238.015 414.597 155.826 343.149 155.826 256C155.826 168.851 238.014 97.4024 241.513 94.4034L256 81.9854L270.487 94.4024C273.985 97.4024 356.174 168.85 356.174 256C356.174 343.15 273.986 414.599 270.487 417.597L256 430.015L241.513 417.597Z" fill="#D80027"/>
<path d="M333.914 256C333.914 178.087 256.001 111.304 256.001 111.304C256.001 111.304 178.088 178.089 178.088 256C178.088 279.835 185.385 302.624 195.507 322.783H316.495C326.617 302.624 333.914 279.835 333.914 256Z" fill="#338AF3"/>
<path d="M333.914 256C333.914 279.835 326.617 302.624 316.495 322.783L256.001 333.913L195.507 322.783C185.385 302.625 178.088 279.835 178.088 256H333.914Z" fill="#0052B4"/>
<path d="M256 400.696C256 400.696 293.528 368.519 316.494 322.783H195.506C218.472 368.519 256 400.696 256 400.696Z" fill="#FFDA44"/>
<path d="M205.912 211.478H306.086L255.999 261.565L205.912 211.478Z" fill="#6DA544"/>
<path d="M239.305 244.87H272.696V345.044H239.305V244.87Z" fill="#A2001D"/>
</g>
<defs>
<clipPath id="clip0_2182_1656">
<rect width="512" height="512" fill="white"/>
</clipPath>
</defs>
</svg>
