<svg width="512" height="512" viewBox="0 0 512 512" fill="none" xmlns="http://www.w3.org/2000/svg">
<g clip-path="url(#clip0_2182_2179)">
<path d="M367.305 25.402C333.649 9.128 295.892 0 256.001 0C216.11 0 178.353 9.128 144.697 25.402L122.436 256L144.697 486.598C178.353 502.872 216.11 512 256.001 512C295.892 512 333.649 502.872 367.305 486.598L389.566 256L367.305 25.402Z" fill="#F0F0F0"/>
<path d="M144.696 25.4111C59.065 66.8171 0 154.506 0 256C0 357.494 59.065 445.183 144.696 486.589V25.4111Z" fill="#6DA544"/>
<path d="M367.305 25.4111V486.589C452.936 445.183 512.001 357.493 512.001 256C512.001 154.507 452.936 66.8171 367.305 25.4111Z" fill="#6DA544"/>
<path d="M322.783 333.914L256 122.436L189.217 333.914H239.304V389.566H272.696V333.914H322.783Z" fill="#6DA544"/>
</g>
<defs>
<clipPath id="clip0_2182_2179">
<rect width="512" height="512" fill="white"/>
</clipPath>
</defs>
</svg>
