<svg width="512" height="512" viewBox="0 0 512 512" fill="none" xmlns="http://www.w3.org/2000/svg">
<g clip-path="url(#clip0_2182_2683)">
<path d="M256 512C397.385 512 512 397.385 512 256C512 114.615 397.385 0 256 0C114.615 0 0 114.615 0 256C0 397.385 114.615 512 256 512Z" fill="#FFDA44"/>
<path d="M256.001 0C255.815 0.002 244.871 102.4 244.871 102.4H460.813C414.108 40.223 339.753 0 256.001 0Z" fill="#496E2D"/>
<path d="M256 512C339.752 512 414.107 471.777 460.811 409.6H51.1895C97.8935 471.777 172.248 512 256 512Z" fill="#496E2D"/>
<path d="M506.875 204.8H244.871L256.001 307.2H506.875C510.235 290.657 512.001 273.535 512.001 256C512.001 238.465 510.233 221.343 506.875 204.8V204.8Z" fill="#496E2D"/>
<path d="M256 307.2C256 253.774 256 60.104 256 0C114.616 0 0 114.616 0 256C0 273.535 1.768 290.657 5.126 307.2H256Z" fill="#D80027"/>
<path d="M141.257 122.435L157.833 173.45H211.478L168.081 204.983L184.655 256L141.257 224.47L97.8591 256L114.436 204.983L71.0391 173.45H124.682L141.257 122.435Z" fill="#F0F0F0"/>
</g>
<defs>
<clipPath id="clip0_2182_2683">
<rect width="512" height="512" fill="white"/>
</clipPath>
</defs>
</svg>
