<svg width="400" height="400" viewBox="0 0 400 400" fill="none" xmlns="http://www.w3.org/2000/svg">
<path d="M75.7518 48.7188L175.032 97.0952C182.575 100.771 190.856 102.681 199.248 102.681C207.639 102.681 215.921 100.771 223.463 97.0952L322.744 48.7188H75.7518Z" fill="url(#paint0_linear_2169_914)"/>
<path d="M49.3774 103.116L119.577 112.05C148.7 115.757 171.43 139.105 174.42 168.386L193.101 351.281L49.3774 103.116Z" fill="url(#paint1_linear_2169_914)"/>
<path d="M350.622 103.116L280.424 112.05C251.3 115.757 228.57 139.105 225.579 168.386L206.898 351.281L350.622 103.116Z" fill="url(#paint2_linear_2169_914)"/>
<defs>
<linearGradient id="paint0_linear_2169_914" x1="199.248" y1="48.7188" x2="199.248" y2="102.68" gradientUnits="userSpaceOnUse">
<stop stop-color="#D0D0D4"/>
<stop offset="1" stop-color="#DADADA"/>
</linearGradient>
<linearGradient id="paint1_linear_2169_914" x1="121.239" y1="103.115" x2="121.239" y2="351.281" gradientUnits="userSpaceOnUse">
<stop stop-color="#C5978B"/>
<stop offset="1" stop-color="#E2BAB1"/>
</linearGradient>
<linearGradient id="paint2_linear_2169_914" x1="278.76" y1="103.115" x2="278.76" y2="351.281" gradientUnits="userSpaceOnUse">
<stop stop-color="#C7B9A0"/>
<stop offset="1" stop-color="#EEDEB8"/>
</linearGradient>
</defs>
</svg>
